<?xml version="1.0" encoding="utf-8"?>
<!-- Generator: Adobe Illustrator 22.1.0, SVG Export Plug-In . SVG Version: 6.00 Build 0)  -->
<svg version="1.1" id="Capa_1" xmlns="http://www.w3.org/2000/svg" xmlns:xlink="http://www.w3.org/1999/xlink" x="0px" y="0px"
	 viewBox="0 0 150 150" style="enable-background:new 0 0 150 150;" xml:space="preserve">
<path d="M123.2,110c-32.3,0-64.2,0-96.4,0c0,2.3,0,4.6,0,6.9c0,4.1-2.4,6.5-6.5,6.5c-1.7,0-3.5,0-5.2,0c-3.6-0.1-6-2.5-6-6.1
	c0-2.3,0.1-4.7-0.1-7c0-0.8-0.5-1.8-1.1-2.3c-2.1-2-3.3-4.3-3.3-7.2c0-7.5,0-15,0-22.5c0-9.9,5.8-18.5,15-22.2
	c0.4-0.1,0.7-0.3,1.4-0.6c-2.5-0.8-4.8-1.4-7-2.1c-1.2-0.4-2.4-0.9-3.4-1.7c-2.4-1.9-2.1-4.3,0.7-5.7c0.6-0.3,1.2-0.5,1.9-0.6
	c1.9-0.3,3.8-0.6,5.7-0.9c3.9-0.5,5,0.4,5.7,4.6c1.9-3.6,3.7-6.9,5.4-10.3c2.6-5.1,6.5-8.9,12.1-10.4c2.7-0.7,5.5-1,8.3-1.1
	c17.7-0.8,35.4-1,53.2,0.3c7.2,0.5,12.2,4.3,15.7,10.4c2,3.5,3.8,7.2,5.6,10.6c0.7-1.2,1.1-2.9,2.1-3.5c1.1-0.7,2.8-0.7,4.2-0.6
	c1.9,0.1,3.7,0.5,5.5,0.8c0.8,0.1,1.6,0.4,2.2,0.8c2.3,1.4,2.6,3.5,0.5,5.2c-1,0.9-2.4,1.5-3.7,1.9c-2.2,0.8-4.5,1.4-7.1,2.2
	c6.1,2.1,10.5,5.9,13.5,11.1c2,3.4,3,7.1,3,11.1c-0.1,7.6,0,15.3,0,22.9c0,3.1-1.1,5.6-3.5,7.5c-0.5,0.4-0.9,1.3-0.9,2
	c-0.1,2.3,0,4.7,0,7c0,3.9-2.3,6.2-6.2,6.2c-1.7,0-3.3,0-5,0c-4.1,0-6.4-2.4-6.5-6.5C123.2,114.6,123.2,112.4,123.2,110z M27,54
	c32.1-2.8,63.8-2.8,95.8,0c-2.9-5.3-5.5-10.4-8.5-15.3c-2.4-4-6.2-6.2-10.9-6.5c-5.3-0.3-10.7-0.8-16-0.8
	c-13.4,0.1-26.9,0.5-40.3,0.8c-4.2,0.1-8,1.7-10.3,5.1C33.3,42.5,30.4,48.2,27,54z M25.5,83c0,0.3,0,0.5,0,0.8
	c3.8,0,7.6,0.1,11.4-0.1c0.9,0,2.2-0.5,2.5-1.1c0.3-0.7,0-2.2-0.6-2.7c-1.9-1.5-3.8-3.4-6-4c-6.4-2-12.9-3.5-19.4-5
	c-2.4-0.6-4.1,0.8-4.2,3.2c-0.1,1.3,0,2.7,0,4C9.2,81,11,82.9,13.9,83C17.8,83.1,21.6,83,25.5,83z M124.5,83.8c0-0.3,0-0.5,0-0.8
	c3.9,0,7.8,0.1,11.6,0c2.8-0.1,4.6-2,4.7-4.7c0-1.3,0-2.5,0-3.8c-0.1-2.9-1.8-4.2-4.6-3.5c-6.1,1.5-12.2,2.9-18.2,4.7
	c-2.3,0.7-4.4,2.4-6.4,3.9c-0.7,0.6-1.3,2.2-1,3.1c0.2,0.6,1.9,1.1,2.9,1.1C117.2,83.8,120.9,83.8,124.5,83.8z"/>
</svg>
